<?xml version="1.0" encoding="utf-8"?><svg xmlns="http://www.w3.org/2000/svg" xmlns:xlink="http://www.w3.org/1999/xlink"><symbol viewBox="-5 -5 440.12 440.12" id="app-store-apple-symbol" xmlns="http://www.w3.org/2000/svg"><path d="M0 258.734v-58.366c0-5.346 4.392-9.719 9.772-9.719H112.91l-44.904 77.817H9.772c-5.38 0-9.772-4.364-9.772-9.732zm73.469 119.515l-32.915 22.3c-4.429 3.01-7.561 1.105-6.947-4.21l4.392-38.153c.611-5.315 4.921-7.486 9.582-4.83l25.473 14.552c4.653 2.669 4.844 7.34.415 10.341zm7.904-21.506L55.9 342.186c-4.657-2.66-6.298-8.625-3.589-13.264l117.954-204.469c2.676-4.646 8.708-6.275 13.362-3.58l25.473 14.519c4.66 2.695 6.259 8.665 3.589 13.294L94.737 353.169c-2.672 4.639-8.709 6.23-13.364 3.574zm89.771-88.277l44.904-77.817h25.856l36.463 77.817H171.144zm146.25 23.222c-10.197-5.092-60.984-121.752-73.996-152.19-13.026-30.439-52.358-111.462-39.635-117.767 9.049-4.52 41.543 59.281 65.902 97.584 24.324 38.305 75.19 137.068 81.449 148.315 6.227 11.276-5.992 20.676-12.787 23.49-6.802 2.814-10.74 5.619-20.933.568zm33.374 53.622l-15.345-24.134c-3.174-5.022-1.526-11.22 3.621-13.866l14.627-7.49c5.157-2.623 11.612-.495 14.356 4.756l12.105 23.181c2.754 5.241.878 11.972-4.088 14.935l-10.459 6.227c-4.965 2.999-11.644 1.365-14.817-3.609zm56.476 63.303c-3.206-10.226-27.685-10.902-38.644-26.299-10.995-15.346-1.908-23.252 1.909-26.901 44.45-24.927 36.735 53.2 36.735 53.2zm22.873-149.879c0 5.367-4.391 9.731-9.772 9.731h-51.627c-.569-3.001-1.493-6.002-3.053-8.816-1.344-2.395-4.741-8.854-9.474-17.856a6897.407 6897.407 0 0 0-27.153-51.144h91.302c5.382 0 9.773 4.373 9.773 9.719v58.366h.004z"/></symbol><symbol viewBox="-5 -5 522 522" id="calendar" xmlns="http://www.w3.org/2000/svg"><path d="M452 40h-24V0h-40v40H124V0H84v40H60C26.916 40 0 66.916 0 100v352c0 33.084 26.916 60 60 60h392c33.084 0 60-26.916 60-60V100c0-33.084-26.916-60-60-60zm20 412c0 11.028-8.972 20-20 20H60c-11.028 0-20-8.972-20-20V188h432v264zm0-304H40v-48c0-11.028 8.972-20 20-20h24v40h40V80h264v40h40V80h24c11.028 0 20 8.972 20 20v48z"/><path d="M76 230h40v40H76zm80 0h40v40h-40zm80 0h40v40h-40zm80 0h40v40h-40zm80 0h40v40h-40zM76 310h40v40H76zm80 0h40v40h-40zm80 0h40v40h-40zm80 0h40v40h-40zM76 390h40v40H76zm80 0h40v40h-40zm80 0h40v40h-40zm80 0h40v40h-40zm80-80h40v40h-40z"/></symbol><symbol viewBox="-5 -5 70 70" id="coins" xmlns="http://www.w3.org/2000/svg"><path d="M59.989 21c-.099-1.711-2.134-3.048-6.204-4.068.137-.3.214-.612.215-.936V9h-.017C53.625 3.172 29.743 3 27 3S.375 3.172.017 9H0v6.999c.005 1.9 2.457 3.387 6.105 4.494-.05.166-.08.335-.09.507H6v6.987C2.07 28.999.107 30.317.01 32H0v6.999c.003 1.323 1.196 2.445 3.148 3.38-.073.202-.12.409-.133.621H3v6.999c.008 3.326 7.497 5.391 15.818 6.355.061.012.117.037.182.037.019 0 .035-.01.054-.011 1.604.181 3.234.322 4.847.423.034.004.064.02.099.02.019 0 .034-.01.052-.011C26.1 56.937 28.115 57 30 57c1.885 0 3.9-.063 5.948-.188.018.001.034.011.052.011.035 0 .065-.017.099-.02a96.863 96.863 0 0 0 4.847-.423c.019 0 .035.01.054.01.065 0 .121-.025.182-.037 8.321-.964 15.809-3.03 15.818-6.357V43h-.016c-.07-1.226-1.115-2.249-3.179-3.104.126-.289.195-.589.195-.9V32.46c3.59-1.104 5.995-2.581 6-4.464V21h-.011zM7 18.674v-4.831c.934.252 1.938.482 3 .691v4.881l-.37-.078A42.126 42.126 0 0 1 7 18.674zm44.771-2.192l-.028-.006-.364.283c-.528.411-1.339.827-2.379 1.229v-4.757c1.189-.414 2.201-.873 3-1.376v4.138c0 .152-.08.316-.229.489zM25.175 38.983l.825.012v4.998c-.194-.002-.388-.002-.581-.005l-.26-.005c-.458-.008-.914-.019-1.367-.033l-.168-.006c-.545-.018-1.086-.041-1.623-.067v-4.992a104.147 104.147 0 0 0 3.174.098zm3.809-.003c1.007-.019 2.014-.05 3.016-.096v4.993a104.916 104.916 0 0 1-2.474.091c-.146.004-.293.006-.44.009-.357.007-.723.009-1.085.012v-4.995a113.474 113.474 0 0 0 .983-.014zm5.682 4.728l-.666.05v-4.987a96.392 96.392 0 0 0 3-.243v4.966a81.624 81.624 0 0 1-2.334.214zM39 38.312a73.794 73.794 0 0 0 3-.422v4.91c-.942.166-1.943.319-3 .458v-4.946zm-21.481 5.236l-.304-.031-.215-.023v-4.965a99.56 99.56 0 0 0 3 .243v4.983a96.79 96.79 0 0 1-2.481-.207zM15 38.312v4.946a69.655 69.655 0 0 1-3-.458v-4.91c.968.157 1.969.299 3 .422zm29 4.102v-4.881a44.704 44.704 0 0 0 3-.691v4.831c-.891.257-1.894.506-3 .741zM25.175 15.983l.825.012v4.993a99.16 99.16 0 0 1-4-.114v-4.989a104.147 104.147 0 0 0 3.175.098zm3.809-.003c1.007-.019 2.014-.05 3.016-.096v4.989c-.17.008-.333.02-.504.028l-.043.002c-.671.03-1.355.052-2.048.068l-.324.007c-.356.007-.72.008-1.081.012v-4.995l.825-.012.159-.003zm6 12c1.007-.019 2.014-.05 3.016-.096v4.988c-1.314.065-2.65.101-4 .115v-4.992l.825-.012.159-.003zm-9.637 4.729c-.64-.05-1.265-.105-1.875-.166l-.392-.04c-.027-.003-.053-.007-.08-.009v-4.966a99.56 99.56 0 0 0 3 .243v4.984l-.248-.016-.405-.03zm-6.202-.717c-.396-.063-.768-.131-1.145-.197v-4.904c.968.157 1.969.298 3 .422v4.946a76.718 76.718 0 0 1-1.855-.267zm12.03-4.009l.825.012v4.993c-.487-.005-.978-.007-1.453-.018l-.222-.004a95.164 95.164 0 0 1-2.209-.083L28 32.878v-4.993a104.147 104.147 0 0 0 3.175.098zm10.067 4.678l-.107.009c-.373.031-.758.051-1.136.078V27.77a96.392 96.392 0 0 0 3-.243v4.961c-.58.062-1.16.123-1.757.173zM17 20.49v-4.962a99.56 99.56 0 0 0 3 .243v4.978a90.68 90.68 0 0 1-3-.259zm20-.002c-.966.102-1.966.191-3 .265v-4.982a96.392 96.392 0 0 0 3-.243v4.96zm2-5.176a73.794 73.794 0 0 0 3-.422v4.902c-.948.167-1.946.321-3 .46v-4.94zm5 4.095v-4.873a44.704 44.704 0 0 0 3-.691v4.82c-.896.261-1.905.51-3 .744zm-29-4.095v4.941c-.198-.026-.404-.047-.6-.074l-.376-.055a72.39 72.39 0 0 1-1.697-.265L12 19.801v-4.91c.968.156 1.969.298 3 .421zm1 11.221v4.873a42.01 42.01 0 0 1-3-.751v-4.813c.934.252 1.938.483 3 .691zm31.907 5.284a64.384 64.384 0 0 1-2.133.336c-.253.036-.516.067-.773.1v-4.941a73.794 73.794 0 0 0 3-.422v4.91l-.094.017zM11 25.231v4.751c-1.572-.607-2.586-1.227-2.916-1.779l-.067-.112c-.006-.031-.016-.064-.017-.095v-4.141c.799.503 1.811.962 3 1.376zm-1 12.302v4.881c-.918-.195-1.765-.4-2.536-.61-.122-.034-.248-.067-.367-.102A3.537 3.537 0 0 0 7 41.674v-4.831a44.72 44.72 0 0 0 3 .69zm3 11v4.881a43.562 43.562 0 0 1-3-.741v-4.831c.934.252 1.938.483 3 .691zm2 .358c.968.157 1.969.298 3 .422v4.946a69.655 69.655 0 0 1-3-.458v-4.91zm5 .637a99.56 99.56 0 0 0 3 .243v4.987a87.083 87.083 0 0 1-3-.263v-4.967zm5 .356a104.147 104.147 0 0 0 3.174.099l.825.012v4.999a101.034 101.034 0 0 1-4-.116v-4.994zm6 .11l.825-.012.159-.003c1.007-.019 2.014-.05 3.016-.096v4.993c-1.284.063-2.618.103-4 .116v-4.998zm6-.223a96.392 96.392 0 0 0 3-.243v4.966c-.961.101-1.961.19-3 .263v-4.986zm5-.459a73.794 73.794 0 0 0 3-.422v4.91c-.942.166-1.943.319-3 .458v-4.946zm5-.779a44.704 44.704 0 0 0 3-.691v4.831c-.891.257-1.894.506-3 .741v-4.881zm4.892-9.212l-.341.299c-.525.463-1.4.93-2.551 1.38v-4.768c1.189-.414 2.201-.873 3-1.376v4.138a.636.636 0 0 1-.108.327zm.672-8.525a46.66 46.66 0 0 1-2.326.568c-.077.017-.159.032-.237.049v-4.879a44.704 44.704 0 0 0 3-.691v4.831l-.437.122zM2 15.996v-4.141c.799.503 1.811.962 3 1.376v4.788c-1.945-.729-2.998-1.46-3-2.023zm0 23v-4.141c.799.503 1.811.962 3 1.376V41l-.571-.222-.012.012C2.847 40.139 2.002 39.5 2 38.996zm3 11v-4.141c.799.503 1.811.962 3 1.376v4.788c-1.945-.729-2.998-1.46-3-2.023zm47 2.023v-4.787c1.189-.414 2.201-.873 3-1.376v4.138c-.001.563-1.055 1.295-3 2.025zm3-22v-4.787c1.189-.414 2.201-.873 3-1.376v4.138c-.001.563-1.055 1.295-3 2.025z"/></symbol><symbol viewBox="-5 -5 521.63 521.63" id="comment" xmlns="http://www.w3.org/2000/svg"><path d="M477.371 127.44c-22.843-28.074-53.871-50.249-93.076-66.523-39.204-16.272-82.035-24.41-128.478-24.41-34.643 0-67.762 4.805-99.357 14.417-31.595 9.611-58.812 22.602-81.653 38.97-22.845 16.37-41.018 35.832-54.534 58.385C6.757 170.833 0 194.484 0 219.228c0 28.549 8.61 55.3 25.837 80.234 17.227 24.931 40.778 45.871 70.664 62.811-2.096 7.611-4.57 14.846-7.426 21.693-2.855 6.852-5.424 12.474-7.708 16.851-2.286 4.377-5.376 9.233-9.281 14.562-3.899 5.328-6.849 9.089-8.848 11.275-1.997 2.19-5.28 5.812-9.851 10.849-4.565 5.048-7.517 8.329-8.848 9.855-.193.089-.953.952-2.285 2.567-1.331 1.615-1.999 2.423-1.999 2.423l-1.713 2.566c-.953 1.431-1.381 2.334-1.287 2.707.096.373-.094 1.331-.57 2.851-.477 1.526-.428 2.669.142 3.433v.284c.765 3.429 2.43 6.187 4.998 8.277 2.568 2.092 5.474 2.95 8.708 2.563 12.375-1.522 23.223-3.606 32.548-6.276 49.87-12.758 93.649-35.782 131.334-69.097 14.272 1.522 28.072 2.286 41.396 2.286 46.442 0 89.271-8.138 128.479-24.417 39.208-16.272 70.233-38.448 93.072-66.517 22.843-28.062 34.263-58.663 34.263-91.781.001-33.119-11.418-63.718-34.254-91.787z"/></symbol><symbol viewBox="-5 -5 42.63 42.63" id="download" xmlns="http://www.w3.org/2000/svg"><path d="M16.317 32.634a.5.5 0 0 1-.5-.5V.5a.5.5 0 0 1 1 0v31.634a.5.5 0 0 1-.5.5z"/><path d="M16.315 32.634a.504.504 0 0 1-.354-.146L3.428 19.951a.5.5 0 0 1 .707-.707l12.179 12.183 12.184-12.183a.5.5 0 0 1 .707.707L16.668 32.487a.498.498 0 0 1-.353.147z"/></symbol><symbol viewBox="-5 -5 265 265" id="drop-down" xmlns="http://www.w3.org/2000/svg"><path d="M0 63.75l127.5 127.5L255 63.75z"/></symbol><symbol viewBox="-5 -5 498.85 498.85" id="eye" xmlns="http://www.w3.org/2000/svg"><path d="M244.425 98.725c-93.4 0-178.1 51.1-240.6 134.1-5.1 6.8-5.1 16.3 0 23.1 62.5 83.1 147.2 134.2 240.6 134.2s178.1-51.1 240.6-134.1c5.1-6.8 5.1-16.3 0-23.1-62.5-83.1-147.2-134.2-240.6-134.2zm6.7 248.3c-62 3.9-113.2-47.2-109.3-109.3 3.2-51.2 44.7-92.7 95.9-95.9 62-3.9 113.2 47.2 109.3 109.3-3.3 51.1-44.8 92.6-95.9 95.9zm-3.1-47.4c-33.4 2.1-61-25.4-58.8-58.8 1.7-27.6 24.1-49.9 51.7-51.7 33.4-2.1 61 25.4 58.8 58.8-1.8 27.7-24.2 50-51.7 51.7z"/></symbol><symbol viewBox="-5 -5 33.21 33.21" id="facebook-logo-button" xmlns="http://www.w3.org/2000/svg"><g data-name="Group 8"><g data-name="Group 7"><path data-name="Path 12" d="M11.606 0a11.606 11.606 0 1 0 11.606 11.606A11.606 11.606 0 0 0 11.606 0zm3 11.6H12.7v6.963h-2.61v-6.957H8.352v-2.4h1.741V7.793c0-1.958.531-3.15 2.836-3.15h1.921v2.4h-1.2c-.9 0-.942.335-.942.96v1.2h2.152z" fill="#ddb185"/></g></g></symbol><symbol viewBox="-5 -57 522 522" id="list" xmlns="http://www.w3.org/2000/svg"><path d="M0 0h113.293v113.293H0zm149.297 0H512v113.293H149.297zM0 147.008h113.293V260.3H0zm149.297 0H512V260.3H149.297zM0 294.012h113.293v113.297H0zm149.297 0H512v113.297H149.297zm0 0"/></symbol><symbol viewBox="-5 -5 495.21 495.21" id="magnifier" xmlns="http://www.w3.org/2000/svg"><path d="M471.882 407.567L360.567 296.243a214.267 214.267 0 0 1-64.331 64.321L407.56 471.888c17.772 17.768 46.587 17.768 64.321 0 17.773-17.739 17.773-46.554.001-64.321zM363.909 181.955C363.909 81.473 282.44 0 181.956 0 81.474 0 .001 81.473.001 181.955s81.473 181.951 181.955 181.951c100.484 0 181.953-81.469 181.953-181.951zM181.956 318.416c-75.252 0-136.465-61.208-136.465-136.46 0-75.252 61.213-136.465 136.465-136.465 75.25 0 136.468 61.213 136.468 136.465 0 75.252-61.218 136.46-136.468 136.46z"/><path d="M75.817 181.955h30.322c0-41.803 34.014-75.814 75.816-75.814V75.816c-58.517 0-106.138 47.621-106.138 106.139z"/></symbol><symbol viewBox="-5 -5 360 360" id="man-user" xmlns="http://www.w3.org/2000/svg"><path d="M175 171.173c38.914 0 70.463-38.318 70.463-85.586C245.463 38.318 235.105 0 175 0s-70.465 38.318-70.465 85.587c0 47.268 31.549 85.586 70.465 85.586zM41.909 301.853c-.012-2.882-.024-.812 0 0zm266.176 2.251c.038-.789.013-5.474 0 0z"/><path d="M307.935 298.397c-1.305-82.342-12.059-105.805-94.352-120.657 0 0-11.584 14.761-38.584 14.761s-38.586-14.761-38.586-14.761C55.018 192.43 43.61 215.545 42.11 295.722c-.123 6.547-.18 6.891-.202 6.131.005 1.424.011 4.058.011 8.651 0 0 19.592 39.496 133.08 39.496 113.486 0 133.08-39.496 133.08-39.496 0-2.951.002-5.003.005-6.399-.022.47-.066-.441-.149-5.708z"/></symbol><symbol viewBox="-5 -5 234.99 234.99" id="play-store" xmlns="http://www.w3.org/2000/svg"><path d="M201.539 91.023L48.002 3.26A24.772 24.772 0 0 0 35.728 0a24.763 24.763 0 0 0-12.412 3.34c-7.6 4.409-12.321 12.606-12.321 21.393V200.26c0 8.786 4.721 16.983 12.319 21.392a24.748 24.748 0 0 0 12.413 3.342c4.296 0 8.541-1.128 12.274-3.261l153.535-87.764c7.686-4.394 12.46-12.621 12.46-21.473s-4.772-17.079-12.457-21.473zm-66.533-20.752l-21.081 29.364L63.5 29.397l71.506 40.874zM34.76 209.908c-1.371-.133-2.716-.533-3.917-1.23a9.763 9.763 0 0 1-4.848-8.418V24.732a9.762 9.762 0 0 1 4.849-8.418 9.746 9.746 0 0 1 3.902-1.25l69.946 97.432-69.932 97.412zm28.74-14.312l50.425-70.239 21.081 29.364L63.5 195.596zm130.594-74.651l-45.996 26.292-24.941-34.741 24.941-34.741 45.996 26.292c3.024 1.729 4.903 4.966 4.903 8.449s-1.878 6.721-4.903 8.449z"/></symbol><symbol viewBox="-5 -5 41.49 41.49" id="right-arrow" xmlns="http://www.w3.org/2000/svg"><path d="M21.205 5.007a1.112 1.112 0 0 0-1.587 0 1.12 1.12 0 0 0 0 1.571l8.047 8.047H1.111A1.106 1.106 0 0 0 0 15.737c0 .619.492 1.127 1.111 1.127h26.554l-8.047 8.032c-.429.444-.429 1.159 0 1.587a1.112 1.112 0 0 0 1.587 0l9.952-9.952a1.093 1.093 0 0 0 0-1.571l-9.952-9.953z"/></symbol><symbol viewBox="-5 -5 32.89 32.89" id="skype-logo" xmlns="http://www.w3.org/2000/svg"><g data-name="Group 11"><g data-name="Group 10"><g data-name="Group 9" fill="#ddb185"><path data-name="Path 13" d="M11.444 0a11.444 11.444 0 1 0 11.445 11.444A11.445 11.445 0 0 0 11.444 0zm3.1 18.211a3.771 3.771 0 0 1-1.988-.566 6.431 6.431 0 0 1-1.147.106 6.271 6.271 0 0 1-6.227-7.261 3.762 3.762 0 0 1 5.21-5.2 6.3 6.3 0 0 1 7.321 6.19 6.43 6.43 0 0 1-.059.851 3.763 3.763 0 0 1-3.11 5.882z"/><path data-name="Path 14" d="M10.621 10.27c-1.823-.443-.825-2 .651-1.98 1.433.023 2.163 1.536 2.811 1.458s1.2-1.053.182-1.925a4.67 4.67 0 0 0-3.722-1.016 2.91 2.91 0 0 0-2.785 2.681c-.156 1.692 1.85 2.552 3.438 2.788 1.113.163 2.629.7 1.717 1.744-.835.957-2.42.365-2.837.1s-.885-1.2-1.667-1.149-1.167 1.08-.207 1.981a4.5 4.5 0 0 0 3.8 1.144c2.006-.1 3.8-1.874 3.1-3.542s-2.659-1.842-4.481-2.284z"/></g></g></g></symbol><symbol viewBox="-5 -5 32.89 32.89" id="social-instagram-circle" xmlns="http://www.w3.org/2000/svg"><g data-name="Group 13"><g data-name="Group 12"><path data-name="Path 15" d="M11.444 0a11.444 11.444 0 1 0 11.445 11.444A11.444 11.444 0 0 0 11.444 0zM18.6 18.081a.517.517 0 0 1-.518.515H4.807a.516.516 0 0 1-.517-.515V4.807a.518.518 0 0 1 .517-.517h13.271a.518.518 0 0 1 .518.517l.004 13.274zM8.583 11.444a2.861 2.861 0 1 1 2.861 2.861 2.862 2.862 0 0 1-2.861-2.861zm5.723-5.723h2.861v2.862h-2.861zm1.3 5.008h1.561v6.437H5.723v-6.437h1.563a2.8 2.8 0 0 0-.1.715 4.256 4.256 0 0 0 8.513 0 2.869 2.869 0 0 0-.093-.715z" fill="#ddb185"/></g></g></symbol><symbol viewBox="-5 -5 42.63 42.63" id="upload" xmlns="http://www.w3.org/2000/svg"><path d="M16.317 32.634a.5.5 0 0 1-.5-.5V.5a.5.5 0 0 1 1 0v31.634a.5.5 0 0 1-.5.5z"/><path d="M28.852 13.536a.502.502 0 0 1-.354-.146L16.319 1.207 4.135 13.39a.5.5 0 0 1-.707-.707L15.966.146a.504.504 0 0 1 .707 0l12.533 12.536a.5.5 0 0 1-.354.854z"/></symbol><symbol viewBox="-5 -5 59.99 60" id="user" xmlns="http://www.w3.org/2000/svg"><g data-name="Group 14"><path data-name="Path 19" d="M24.997 0a25 25 0 1 0 25 25 25 25 0 0 0-25-25zm.076 36.791H14.241c0-7.809 6.858-7.807 8.38-9.849l.174-.931a7.463 7.463 0 0 1-3.648-6.752c0-4.025 2.618-7.289 5.848-7.289s5.848 3.264 5.848 7.289a7.489 7.489 0 0 1-3.592 6.726l.2 1.058c1.67 1.943 8.3 2.07 8.3 9.747z" fill="#ddb185"/></g></symbol></svg>